<svg version="1.1" xmlns="http://www.w3.org/2000/svg" xmlns:xlink="http://www.w3.org/1999/xlink" x="0px" y="0px" width="512px" height="512px" viewBox="0 0 512 512" style="enable-background:new 0 0 512 512;" xml:space="preserve">
<g id="C_-_92_x2C__Application_x2C__clipboard_x2C__curriculum_x2C__cv_x2C__resume_x2C__staff">
	<g>
		<g>
			<g>
				<polygon style="fill:#FBD5A6;" points="381.86,95.04 381.86,41.39 76.28,41.39 76.351,470.61 435.72,470.61 435.72,95.04 				
					"></polygon>
				<path style="fill:#424242;" d="M383.56,406.66L345.44,444.6l-69.881-69.56l6.36-6.32l25.41-25.29l6.35-6.319L383.56,406.66z"></path>
				<path style="fill:#545454;" d="M307.33,343.43l-25.41,25.29l-20.34-20.229c4.95-3.26,9.63-7.05,13.979-11.38
					c2.181-2.17,4.221-4.41,6.12-6.74c0.311-0.37,0.61-0.74,0.9-1.12c0.66-0.82,1.3-1.66,1.92-2.5c0.45-0.6,0.89-1.21,1.31-1.82
					c0.41-0.569,0.801-1.149,1.19-1.729L307.33,343.43z"></path>
				<path style="fill:#E35D54;" d="M275.56,210.649c31.25,31.101,34.671,79.41,10.25,114.28c-0.43,0.61-0.859,1.221-1.31,1.82
					c-0.62,0.84-1.26,1.68-1.92,2.5c-0.29,0.38-0.59,0.75-0.9,1.12c-1.899,2.33-3.939,4.57-6.12,6.74
					c-4.35,4.33-9.029,8.12-13.979,11.38c-34.89,23-82.34,19.21-113.08-11.38c-35.08-34.92-35.08-91.541,0-126.461
					C183.59,175.729,240.471,175.729,275.56,210.649z"></path>
				<polygon style="fill:#FAC78E;" points="435.72,94.99 435.72,95.04 381.86,95.04 381.86,41.39 				"></polygon>
				<path style="fill:#BCA07D;" d="M297.35,119.37H121.24c-2.761,0-5-2.239-5-5c0-2.762,2.239-5,5-5H297.35c2.762,0,5,2.238,5,5
					C302.35,117.131,300.111,119.37,297.35,119.37z"></path>
				<path style="fill:#BCA07D;" d="M372.83,153.689H121.24c-2.761,0-5-2.238-5-5c0-2.761,2.239-5,5-5h251.59c2.762,0,5,2.239,5,5
					C377.83,151.451,375.592,153.689,372.83,153.689z"></path>
				<path style="fill:#F3B840;" d="M247.021,293.773v12.18c0,3.28-2.7,5.96-6,5.96h-59.88c-3.29,0-5.99-2.68-5.99-5.96v-12.18
					c0-9.69,7.96-17.61,17.7-17.61h36.47C239.061,276.163,247.021,284.083,247.021,293.773z"></path>
				<path style="fill:#FBD5A6;" d="M211.16,231.919c9.89,0,17.9,8,17.9,17.88c0,9.881-8.011,17.881-17.9,17.881
					c-9.88,0-17.89-8-17.89-17.881C193.271,239.919,201.28,231.919,211.16,231.919z"></path>
				<path style="fill:#323232;" d="M345.85,399.09c4.95,0,8.96,4,8.96,8.92c0,4.931-4.01,8.92-8.96,8.92
					c-4.949,0-8.97-3.989-8.97-8.92C336.88,403.09,340.9,399.09,345.85,399.09z"></path>
			</g>
		</g>
	</g>
</g>
<g id="Layer_1">
</g>
</svg>
